# xmcd
#
# Track frame offsets:
#	150
#	42824
#	112834
#	147292
#	181217
#
# Disc length: 2932 seconds
#
# Revision: 1
# Processed by: cddbd v1.5.2PL0 Copyright (c) Steve Scherf et al.
# Submitted via: CDmax 2.0
#
DISCID=380b7205
DTITLE=Ron Evans Group - ...live on the road
DYEAR=1900
DGENRE=Blues
TTITLE0=Cocaine
TTITLE1=Roadhouse Blues
TTITLE2=Red House
TTITLE3=Rock And Roll
TTITLE4=P Jam
EXTD=
EXTT0=
EXTT1=
EXTT2=
EXTT3=
EXTT4=
PLAYORDER=
